<?xml version="1.0" encoding="utf-8"?>
<!-- Generator: Adobe Illustrator 26.3.1, SVG Export Plug-In . SVG Version: 6.00 Build 0)  -->
<svg version="1.1" id="Layer_1" xmlns="http://www.w3.org/2000/svg" xmlns:xlink="http://www.w3.org/1999/xlink" x="0px" y="0px"
	 viewBox="0 0 266 78" style="enable-background:new 0 0 266 78;" xml:space="preserve">
<style type="text/css">
	.st0{fill:#FFFFFF;}
	.st1{font-family:'MyriadPro-BlackSemiExtIt';}
	.st2{font-size:32.6115px;}
	.st3{font-family:'MyriadPro-Semibold';}
	.st4{fill-rule:evenodd;clip-rule:evenodd;fill:#FFFFFF;stroke:#FFFFFF;stroke-width:0.4405;stroke-miterlimit:10;}
</style>
<g>
	<text transform="matrix(1 0 0 1 63.3936 29.0046)" class="st0 st1 st2">ORQUESTRA</text>
	<text transform="matrix(1 0 0 1 63.3936 68.1346)" class="st0 st3 st2">ISTEC</text>
	<path id="path19" class="st4" d="M3.8,68.3c5.1-3.4,8.9-6,11.3-7.8c2.4-1.8,5-4,7.6-6.6s4.8-5.6,6.6-8.9c1.4-2.4,2.6-5.2,3.6-8.4
		c1-3.2,1.5-6.2,1.6-9.1c0-2.7-0.3-5.3-1.1-7.7c-0.7-2.5-1.9-4.5-3.7-6.1c-1.7-1.6-4-2.4-6.8-2.4c-2.7,0-5.2,0.5-7.6,1.6
		c-2.3,1.1-4,2.8-4.9,5.2c0,0.2-0.1,0.5-0.3,0.9c0.1,0.5,0.3,0.9,0.8,1.2c0.5,0.3,0.9,0.4,1.3,0.4c0.2,0,0.7-0.1,1.6-0.3
		c0.9-0.2,1.6-0.3,2.1-0.3c1.7,0,3.2,0.6,4.6,1.8c1.4,1.2,2,2.6,2,4.3c0,1.2-0.4,2.4-1,3.4C21,30.6,20,31.4,18.8,32
		c-1.2,0.6-2.5,0.9-3.9,0.9c-2.6,0-4.8-0.8-6.5-2.3C6.6,29,5.7,27,5.7,24.5c0-3.2,1-6,2.9-8.4c2-2.4,4.5-4.1,7.6-5.3
		c3-1.2,6.1-1.8,9.3-1.8c3.4,0,6.7,0.9,9.7,2.6c3.1,1.7,5.5,4.1,7.3,7.1c1.8,3,2.7,6.2,2.7,9.7c0,6.1-2,11.8-6.2,17.1
		s-9.2,9.8-15.2,13.8c-4,2.7-10.6,6.2-19.6,10.8L3.8,68.3z M48.4,18.9c0-1.1,0.4-2.1,1.2-2.9c0.8-0.8,1.8-1.2,3-1.2
		c1,0,2,0.4,2.9,1.3c0.9,0.8,1.3,1.8,1.3,2.9c0,1.1-0.5,2.1-1.3,2.9c-0.9,0.8-1.9,1.1-3,1.1c-1.2,0-2.2-0.4-2.9-1.2
		C48.8,21,48.4,20,48.4,18.9z M48.4,35.6c0-1.2,0.4-2.1,1.2-2.9c0.8-0.8,1.8-1.2,3-1.2c1,0,2,0.4,2.9,1.3c0.8,0.9,1.3,1.8,1.3,2.8
		c0,1.2-0.4,2.2-1.2,3c-0.8,0.8-1.8,1.2-2.9,1.2c-1.2,0-2.2-0.4-3-1.2C48.8,37.9,48.4,36.9,48.4,35.6z"/>
</g>
</svg>
