<?xml version="1.0" encoding="utf-8"?>
<!-- Generator: Adobe Illustrator 25.3.1, SVG Export Plug-In . SVG Version: 6.00 Build 0)  -->
<svg version="1.1" id="Layer_1" xmlns="http://www.w3.org/2000/svg" xmlns:xlink="http://www.w3.org/1999/xlink" x="0px" y="0px"
	 viewBox="0 0 64 78" style="enable-background:new 0 0 64 78;" xml:space="preserve">
<style type="text/css">
	.st0{fill-rule:evenodd;clip-rule:evenodd;stroke:#000000;stroke-width:0.4405;stroke-miterlimit:10;}
</style>
<path id="path19" class="st0" d="M5.53,67.84c5.07-3.42,8.85-6.01,11.29-7.8c2.44-1.76,5-3.97,7.64-6.59s4.84-5.6,6.64-8.89
	c1.41-2.43,2.63-5.25,3.63-8.44c0.99-3.17,1.51-6.24,1.6-9.15c0-2.72-0.35-5.31-1.09-7.74c-0.71-2.46-1.92-4.48-3.66-6.11
	c-1.73-1.6-3.98-2.4-6.77-2.4c-2.69,0-5.23,0.54-7.6,1.6c-2.34,1.09-4.01,2.81-4.94,5.25c0,0.22-0.13,0.51-0.32,0.93
	c0.06,0.51,0.32,0.9,0.8,1.18c0.48,0.29,0.9,0.42,1.28,0.42c0.19,0,0.74-0.1,1.57-0.29c0.87-0.19,1.57-0.32,2.15-0.32
	c1.7,0,3.21,0.61,4.59,1.79c1.35,1.18,2.02,2.62,2.02,4.32c0,1.22-0.35,2.37-1.03,3.42s-1.6,1.92-2.79,2.53
	c-1.19,0.64-2.5,0.93-3.91,0.93c-2.57,0-4.75-0.77-6.54-2.34c-1.76-1.6-2.66-3.61-2.66-6.14c0-3.23,0.99-6.01,2.95-8.38
	c1.99-2.37,4.49-4.13,7.57-5.31C21,9.08,24.08,8.5,27.22,8.5c3.43,0,6.71,0.86,9.75,2.62c3.08,1.73,5.49,4.13,7.28,7.1
	c1.8,3.01,2.73,6.21,2.73,9.66c0,6.14-2.05,11.84-6.16,17.11s-9.18,9.85-15.24,13.75C21.54,61.41,15,64.99,5.98,69.5L5.53,67.84z
	 M50.09,18.35c0-1.15,0.42-2.11,1.25-2.88c0.8-0.8,1.8-1.18,2.98-1.18c1.03,0,1.99,0.45,2.86,1.31c0.87,0.83,1.28,1.82,1.28,2.91
	c0,1.15-0.45,2.14-1.28,2.94c-0.9,0.77-1.89,1.15-3.02,1.15c-1.19,0-2.15-0.38-2.92-1.25C50.48,20.53,50.09,19.54,50.09,18.35z
	 M50.09,35.11c0-1.15,0.42-2.14,1.19-2.91c0.8-0.8,1.8-1.18,3.05-1.18c1.03,0,1.96,0.42,2.86,1.28c0.83,0.86,1.28,1.79,1.28,2.81
	c0,1.25-0.42,2.24-1.22,3.04c-0.83,0.8-1.8,1.22-2.92,1.22c-1.25,0-2.25-0.42-3.05-1.18C50.51,37.42,50.09,36.39,50.09,35.11z"/>
</svg>
