<?xml version="1.0" standalone="no"?>
<!DOCTYPE svg PUBLIC "-//W3C//DTD SVG 20010904//EN"
 "http://www.w3.org/TR/2001/REC-SVG-20010904/DTD/svg10.dtd">
<svg version="1.0" xmlns="http://www.w3.org/2000/svg"
 width="624.000000pt" height="624.000000pt" viewBox="0 0 624.000000 624.000000"
 preserveAspectRatio="xMidYMid meet">
<metadata>
Created by potrace 1.14, written by Peter Selinger 2001-2017
</metadata>
<g transform="translate(0.000000,624.000000) scale(0.100000,-0.100000)"
fill="#000000" stroke="none">
<path d="M2598 5574 c-2 -1 -30 -5 -63 -8 -141 -12 -292 -44 -410 -86 -33 -12
-67 -23 -75 -25 -20 -5 -120 -45 -145 -58 -11 -6 -38 -19 -60 -29 -22 -10 -47
-23 -55 -28 -8 -5 -32 -19 -52 -30 -70 -38 -213 -152 -292 -234 -202 -208
-310 -467 -308 -742 0 -74 14 -199 22 -199 1 0 4 -13 6 -28 11 -69 107 -215
188 -287 42 -38 142 -110 153 -110 4 0 25 -9 48 -20 105 -51 308 -77 450 -57
179 24 365 149 449 300 112 201 90 426 -57 579 -166 172 -347 218 -617 155
-75 -18 -114 -18 -155 -2 -25 9 -55 30 -69 47 -22 29 -23 32 -9 77 8 25 15 52
16 59 0 6 4 12 8 12 4 0 9 10 13 23 17 69 145 222 239 286 96 65 295 144 417
165 14 2 41 7 60 10 19 3 49 8 65 12 45 8 254 9 305 1 77 -12 97 -17 160 -36
179 -56 350 -218 459 -438 35 -69 92 -234 105 -303 13 -65 17 -84 27 -143 6
-34 12 -83 14 -108 1 -26 5 -50 7 -55 7 -12 2 -340 -6 -386 -3 -21 -8 -55 -11
-75 -18 -131 -66 -344 -95 -428 -10 -27 -25 -75 -35 -105 -41 -138 -179 -459
-235 -550 -5 -8 -40 -67 -76 -130 -37 -63 -71 -116 -76 -118 -4 -2 -8 -8 -8
-13 0 -6 -18 -34 -40 -64 -22 -30 -40 -58 -40 -64 0 -5 -3 -11 -8 -13 -4 -1
-35 -39 -70 -83 -106 -135 -197 -233 -359 -385 -142 -134 -166 -154 -308 -268
-178 -142 -159 -128 -370 -276 -99 -69 -184 -129 -190 -133 -11 -9 -246 -168
-380 -258 -49 -33 -92 -62 -95 -65 -3 -3 -17 -13 -32 -22 l-26 -17 21 -81 c12
-44 25 -80 29 -80 4 0 126 60 271 134 144 74 296 152 337 173 41 21 77 40 80
43 3 3 19 12 35 20 92 46 290 155 293 162 2 4 8 8 14 8 25 0 576 329 614 367
7 7 16 13 21 13 4 0 31 17 58 38 28 20 70 50 95 67 25 16 47 32 50 35 3 3 34
28 70 55 64 48 219 174 252 204 9 9 49 45 88 81 175 158 338 333 505 540 20
25 43 53 50 62 17 21 100 144 148 218 143 226 250 512 302 815 22 131 25 457
4 540 -7 26 -13 56 -23 115 -12 72 -83 267 -124 340 -5 8 -24 42 -42 74 -28
50 -104 163 -144 214 -39 50 -212 218 -267 260 -57 44 -261 172 -274 172 -3 0
-33 14 -67 30 -84 41 -256 95 -348 110 -41 7 -84 14 -95 17 -22 5 -333 12
-337 7z"/>
<path d="M4860 5109 c-110 -17 -154 -39 -222 -112 -63 -68 -82 -118 -82 -222
0 -106 3 -119 44 -190 64 -112 165 -169 295 -169 320 2 476 360 255 583 -48
49 -130 99 -174 106 -56 10 -74 11 -116 4z"/>
<path d="M4855 3773 c-126 -21 -217 -85 -270 -189 -60 -119 -39 -291 47 -389
163 -185 464 -152 582 64 47 87 52 208 13 295 -33 72 -120 159 -191 192 -52
24 -131 35 -181 27z"/>
</g>
</svg>
